<svg xmlns="http://www.w3.org/2000/svg" width="187" height="40" viewBox= "0 0 987 170" version="1.1"><path d="M 2 92 L 2 184 94 184 L 186 184 186 92 L 186 0 94 0 L 2 0 2 92 M 3 92 L 3 183 94 183 L 185 183 185 92 L 185 1 94 1 L 3 1 3 92 M 63 73.658 C 62.175 73.933, 60.948 74.330, 60.272 74.539 C 59.472 74.787, 60.777 77.919, 64.022 83.539 C 68.462 91.226, 69 92.798, 69 98.079 L 69 104 72.500 104 L 76 104 76 98.336 C 76 93.444, 76.639 91.534, 80.687 84.322 C 83.264 79.730, 85.704 76.317, 86.108 76.737 C 86.512 77.156, 88.597 83.350, 90.742 90.500 L 94.640 103.500 98.155 103.801 L 101.670 104.101 103.849 95.801 C 105.047 91.235, 106.021 86.938, 106.014 86.250 C 106.006 85.563, 106.380 85, 106.844 85 C 107.309 85, 108.791 89.162, 110.139 94.250 L 112.589 103.500 116.130 103.801 L 119.672 104.101 123.884 89.432 C 126.201 81.364, 127.962 74.635, 127.798 74.479 C 127.634 74.322, 126.176 74.038, 124.558 73.847 L 121.617 73.500 118.941 84 C 117.470 89.775, 116.009 93.825, 115.696 93 C 115.060 91.328, 111 75.353, 111 74.526 C 111 74.237, 109.274 74, 107.165 74 L 103.331 74 101.057 84.182 C 99.674 90.375, 98.493 93.804, 98.041 92.932 C 97.633 92.145, 96.237 87.300, 94.940 82.167 L 92.582 72.834 89.666 73.417 C 88.062 73.738, 85.039 74, 82.948 74 C 79.388 74, 78.947 74.350, 76 79.500 C 74.269 82.525, 72.668 85, 72.441 85 C 72.214 85, 70.666 82.300, 69 79 C 67.334 75.700, 65.640 73.036, 65.236 73.079 C 64.831 73.122, 63.825 73.383, 63 73.658 M 264.405 88.500 C 264.406 97.300, 264.559 100.766, 264.745 96.203 C 264.930 91.639, 264.929 84.439, 264.742 80.203 C 264.555 75.966, 264.404 79.700, 264.405 88.500 M 270.405 88.500 C 270.406 97.300, 270.559 100.766, 270.745 96.203 C 270.930 91.639, 270.929 84.439, 270.742 80.203 C 270.555 75.966, 270.404 79.700, 270.405 88.500 M 214.500 83 C 215.353 84.650, 216.276 86, 216.551 86 C 216.826 86, 216.353 84.650, 215.500 83 C 214.647 81.350, 213.724 80, 213.449 80 C 213.174 80, 213.647 81.350, 214.500 83 M 230.500 85 C 229.647 86.650, 229.174 88, 229.449 88 C 229.724 88, 230.647 86.650, 231.500 85 C 232.353 83.350, 232.826 82, 232.551 82 C 232.276 82, 231.353 83.350, 230.500 85 M 239.206 91.250 L 239.411 100.500 239.745 91.750 C 240.070 83.211, 240.137 83, 242.539 83 C 244.929 83, 245 83.211, 245 90.300 C 245 94.644, 245.486 98.086, 246.200 98.800 C 247.555 100.155, 250.633 100.403, 251.366 99.216 C 251.633 98.785, 250.647 98.448, 249.175 98.466 C 246.511 98.500, 246.499 98.465, 246.210 90.250 L 245.919 82 242.460 82 L 239 82 239.206 91.250 M 253.201 90.250 L 253.402 98.500 253.742 90.810 L 254.082 83.121 257.291 82.720 C 260.400 82.333, 260.383 82.315, 256.750 82.160 L 253 82 253.201 90.250 M 297.212 93.184 L 297.425 104.500 297.746 93.750 C 298.038 84.003, 298.243 83, 299.950 83 C 300.986 83, 302.062 83.461, 302.342 84.025 C 302.621 84.589, 302.737 84.476, 302.598 83.775 C 302.459 83.074, 301.143 82.358, 299.673 82.184 L 297 81.867 297.212 93.184 M 384.083 82.303 C 384.313 82.469, 385.850 83.396, 387.500 84.362 L 390.500 86.119 388.139 84.059 C 386.841 82.927, 385.303 82, 384.723 82 C 384.142 82, 383.854 82.136, 384.083 82.303 M 396.500 82.724 C 397.600 82.994, 398.951 83.580, 399.503 84.025 C 400.055 84.470, 401.630 84.213, 403.003 83.453 C 404.376 82.693, 405.133 82.055, 404.684 82.035 C 404.236 82.016, 403.025 82.451, 401.995 83.003 C 400.743 83.673, 399.916 83.673, 399.502 83.003 C 399.161 82.451, 397.896 82.052, 396.691 82.116 C 394.661 82.223, 394.647 82.268, 396.500 82.724 M 421.004 85.496 C 419.714 86.869, 418.848 88.160, 419.079 88.364 C 419.311 88.569, 420.547 87.446, 421.826 85.868 C 424.689 82.338, 424.185 82.110, 421.004 85.496 M 291.676 85 C 292.129 85.825, 292.759 90.550, 293.075 95.500 L 293.649 104.500 293.825 95.941 C 293.958 89.444, 293.621 86.915, 292.426 85.441 C 291.560 84.374, 291.223 84.175, 291.676 85 M 218.196 89.250 C 218.893 90.487, 219.738 94.425, 220.074 98 L 220.685 104.500 220.843 98.700 C 220.982 93.570, 219.071 87, 217.439 87 C 217.159 87, 217.500 88.013, 218.196 89.250 M 415.355 95.500 C 415.352 100.450, 415.521 102.601, 415.731 100.280 C 415.940 97.959, 415.943 93.909, 415.736 91.280 C 415.530 88.651, 415.358 90.550, 415.355 95.500 M 383.364 88.781 C 383.784 89.459, 382.803 90.023, 380.769 90.275 C 377.527 90.677, 377.531 90.681, 381.250 90.840 C 384.913 90.996, 386.155 89.832, 383.845 88.405 C 383.155 87.978, 382.961 88.129, 383.364 88.781 M 318.343 96.500 C 318.346 100.900, 318.522 102.576, 318.733 100.224 C 318.945 97.872, 318.942 94.272, 318.727 92.224 C 318.512 90.176, 318.339 92.100, 318.343 96.500 M 282.250 90.689 C 283.212 90.941, 284.788 90.941, 285.750 90.689 C 286.712 90.438, 285.925 90.232, 284 90.232 C 282.075 90.232, 281.288 90.438, 282.250 90.689 M 409.336 97 C 409.336 101.125, 409.513 102.813, 409.728 100.750 C 409.944 98.688, 409.944 95.313, 409.728 93.250 C 409.513 91.188, 409.336 92.875, 409.336 97 M 226.412 92.369 C 226.123 93.122, 226.032 96.160, 226.210 99.119 L 226.533 104.500 227.017 97.748 C 227.503 90.952, 227.379 89.848, 226.412 92.369 M 276.494 93.006 C 273.938 95.831, 275.026 96.093, 277.714 93.301 C 278.932 92.035, 279.564 91, 279.119 91 C 278.674 91, 277.493 91.903, 276.494 93.006 M 280.336 96.567 C 279.544 98.630, 281.312 100.310, 283.644 99.710 C 285.104 99.334, 284.995 99.207, 283.133 99.116 C 281.281 99.025, 280.880 98.565, 281.290 97 C 281.908 94.634, 281.201 94.313, 280.336 96.567 M 372 97.941 C 372 99.559, 372.356 101.102, 372.791 101.371 C 373.226 101.640, 373.402 100.316, 373.182 98.430 C 372.691 94.227, 372 93.941, 372 97.941 M 383.791 96.691 C 383.473 97.909, 382.213 99.024, 380.866 99.279 C 378.728 99.684, 378.705 99.741, 380.628 99.864 C 383.035 100.018, 385.401 97.702, 384.770 95.809 C 384.536 95.107, 384.104 95.496, 383.791 96.691 M 425 95.623 C 425 97.321, 428.755 100.257, 430.192 99.682 C 431.066 99.332, 430.938 99.132, 429.807 99.079 C 428.875 99.036, 427.413 98, 426.557 96.777 C 425.701 95.555, 425 95.035, 425 95.623 M 287.648 102.685 C 287.271 103.062, 285.059 103.681, 282.731 104.060 L 278.500 104.750 282.059 104.875 C 284.016 104.944, 286.491 104.339, 287.559 103.532 C 288.626 102.724, 289.238 102.049, 288.917 102.032 C 288.596 102.014, 288.025 102.308, 287.648 102.685 M 375.899 104.299 C 376.365 104.765, 378.265 104.989, 380.123 104.798 C 383.417 104.459, 383.396 104.438, 379.276 103.951 C 376.953 103.677, 375.433 103.833, 375.899 104.299 M 427.762 104.707 C 429.006 104.946, 430.806 104.937, 431.762 104.687 C 432.718 104.437, 431.700 104.241, 429.500 104.252 C 427.300 104.263, 426.518 104.468, 427.762 104.707" stroke="none" fill="#f6e9ed" fill-rule="evenodd"/><path d="M 37.094 55.306 C 29.985 57.797, 27.872 65.168, 31.360 75.304 C 33.498 81.518, 32.386 84, 27.465 84 L 24 84 24 89.500 L 24 95 27.465 95 C 32.739 95, 33.534 97.432, 30.993 105.797 C 29.177 111.776, 29.081 113.081, 30.212 116.459 C 32.145 122.237, 35.509 124.205, 44.434 124.777 L 52 125.263 52 122.257 C 52 116.028, 50.877 113, 48.566 113 C 47.365 113, 45.509 112.361, 44.441 111.581 C 42.681 110.294, 42.625 109.852, 43.841 106.831 C 47.297 98.242, 47.389 97.364, 45.275 93.092 C 43.613 89.731, 43.496 88.833, 44.605 87.913 C 47.118 85.827, 47.326 80.524, 45.092 75.475 C 43.941 72.874, 43 70.144, 43 69.408 C 43 67.815, 46.093 66, 48.809 66 C 50.841 66, 52 62.685, 52 56.875 C 52 54.035, 51.930 54.001, 46.250 54.056 C 43.087 54.087, 38.967 54.650, 37.094 55.306 M 138.014 57.616 C 138.036 63.838, 138.946 66, 141.545 66 C 142.817 66, 144.580 66.722, 145.463 67.605 C 147.144 69.287, 146.897 71.239, 144.373 76.200 C 142.549 79.787, 142.636 84.036, 144.591 86.826 C 146.045 88.903, 146.045 89.385, 144.591 92.450 C 142.639 96.563, 142.582 99.278, 144.373 102.800 C 146.897 107.761, 147.144 109.713, 145.463 111.395 C 144.580 112.278, 142.817 113, 141.545 113 C 138.962 113, 138.036 115.163, 138.014 121.250 L 138 125 143.250 124.994 C 158.213 124.979, 162.985 118.144, 158.334 103.390 C 156.332 97.040, 157.375 95, 162.622 95 L 166 95 166 89.500 L 166 84 162.622 84 C 157.375 84, 156.332 81.960, 158.334 75.610 C 161.406 65.863, 160.094 59.134, 154.563 56.274 C 152.887 55.407, 148.475 54.481, 144.758 54.215 L 138 53.731 138.014 57.616 M 81.762 73.707 C 83.006 73.946, 84.806 73.937, 85.762 73.687 C 86.718 73.437, 85.700 73.241, 83.500 73.252 C 81.300 73.263, 80.518 73.468, 81.762 73.707 M 105.250 73.689 C 106.213 73.941, 107.787 73.941, 108.750 73.689 C 109.713 73.438, 108.925 73.232, 107 73.232 C 105.075 73.232, 104.287 73.438, 105.250 73.689 M 390.343 96.500 C 390.346 100.900, 390.522 102.576, 390.733 100.224 C 390.945 97.872, 390.942 94.272, 390.727 92.224 C 390.512 90.176, 390.339 92.100, 390.343 96.500" stroke="none" fill="#c41247" fill-rule="evenodd"/><path d="M 3 92 L 3 183 94 183 L 185 183 185 92 L 185 1 94 1 L 3 1 3 92 M 37.094 55.306 C 29.985 57.797, 27.872 65.168, 31.360 75.304 C 33.498 81.518, 32.386 84, 27.465 84 L 24 84 24 89.500 L 24 95 27.465 95 C 32.739 95, 33.534 97.432, 30.993 105.797 C 29.177 111.776, 29.081 113.081, 30.212 116.459 C 32.145 122.237, 35.509 124.205, 44.434 124.777 L 52 125.263 52 122.257 C 52 116.028, 50.877 113, 48.566 113 C 47.365 113, 45.509 112.361, 44.441 111.581 C 42.681 110.294, 42.625 109.852, 43.841 106.831 C 47.297 98.242, 47.389 97.364, 45.275 93.092 C 43.613 89.731, 43.496 88.833, 44.605 87.913 C 47.118 85.827, 47.326 80.524, 45.092 75.475 C 43.941 72.874, 43 70.144, 43 69.408 C 43 67.815, 46.093 66, 48.809 66 C 50.841 66, 52 62.685, 52 56.875 C 52 54.035, 51.930 54.001, 46.250 54.056 C 43.087 54.087, 38.967 54.650, 37.094 55.306 M 138.014 57.616 C 138.036 63.838, 138.946 66, 141.545 66 C 142.817 66, 144.580 66.722, 145.463 67.605 C 147.144 69.287, 146.897 71.239, 144.373 76.200 C 142.549 79.787, 142.636 84.036, 144.591 86.826 C 146.045 88.903, 146.045 89.385, 144.591 92.450 C 142.639 96.563, 142.582 99.278, 144.373 102.800 C 146.897 107.761, 147.144 109.713, 145.463 111.395 C 144.580 112.278, 142.817 113, 141.545 113 C 138.962 113, 138.036 115.163, 138.014 121.250 L 138 125 143.250 124.994 C 158.213 124.979, 162.985 118.144, 158.334 103.390 C 156.332 97.040, 157.375 95, 162.622 95 L 166 95 166 89.500 L 166 84 162.622 84 C 157.375 84, 156.332 81.960, 158.334 75.610 C 161.406 65.863, 160.094 59.134, 154.563 56.274 C 152.887 55.407, 148.475 54.481, 144.758 54.215 L 138 53.731 138.014 57.616 M 61.140 74.072 C 58.964 74.943, 58.893 75.191, 60.225 77.258 C 66.806 87.477, 69 92.823, 69 98.643 C 69 104.508, 69.039 104.591, 71.750 104.425 C 73.263 104.333, 74.838 104.200, 75.250 104.129 C 75.662 104.058, 76 101.451, 76 98.336 C 76 93.446, 76.639 91.533, 80.675 84.344 C 83.246 79.763, 85.608 76.270, 85.925 76.581 C 86.241 76.891, 88.318 83.071, 90.540 90.313 C 94.164 102.122, 94.861 103.579, 97.295 104.435 C 100.932 105.714, 101.486 104.971, 103.968 95.500 C 105.120 91.100, 106.327 86.825, 106.649 86 C 106.971 85.175, 108.457 89, 109.951 94.500 L 112.668 104.500 116.041 104.500 L 119.414 104.500 123.684 90.500 C 128.967 73.180, 128.991 72.778, 124.750 73.187 L 121.500 73.500 118.910 84 L 116.320 94.500 115.213 90.500 C 114.604 88.300, 113.568 84.250, 112.909 81.500 C 111.076 73.845, 110.327 72.838, 106.732 73.192 C 103.632 73.497, 103.567 73.618, 100.949 84 L 98.302 94.500 97.203 90.500 C 96.598 88.300, 95.360 83.501, 94.452 79.836 L 92.800 73.172 86.355 73.123 L 79.909 73.073 77.205 77.433 C 75.717 79.831, 74.001 82.627, 73.391 83.646 C 72.413 85.281, 71.908 84.760, 69.126 79.250 C 65.899 72.857, 65.240 72.430, 61.140 74.072 M 265.667 73.667 C 265.300 74.033, 265 81.008, 265 89.167 L 265 104 267.500 104 L 270 104 270 88.500 C 270 74.136, 269.866 73, 268.167 73 C 267.158 73, 266.033 73.300, 265.667 73.667 M 212.799 74.820 C 211.321 75.411, 211.744 76.614, 216.027 84 C 220.359 91.470, 220.959 93.197, 220.978 98.250 C 220.999 103.711, 221.126 104, 223.500 104 C 225.864 104, 226 103.701, 226 98.492 C 226 93.722, 226.670 91.807, 231 84.190 C 233.750 79.354, 236 75.052, 236 74.632 C 236 74.211, 234.791 74.010, 233.313 74.184 C 231.285 74.422, 229.875 75.772, 227.563 79.688 C 225.878 82.541, 224.192 85.174, 223.815 85.539 C 223.439 85.904, 221.745 83.457, 220.051 80.101 C 217.018 74.092, 216.169 73.474, 212.799 74.820 M 331.004 74.750 C 331.006 75.162, 332.937 81.800, 335.296 89.500 C 339.202 102.251, 339.804 103.526, 342.042 103.786 C 344.366 104.056, 344.657 103.493, 347.364 93.483 C 348.939 87.660, 350.410 83.077, 350.633 83.299 C 350.855 83.522, 352.273 88.158, 353.783 93.602 C 356.301 102.682, 356.730 103.500, 358.971 103.500 C 361.241 103.500, 361.714 102.514, 365.684 89.500 C 368.032 81.800, 369.964 75.133, 369.977 74.684 C 369.990 74.235, 368.784 74.010, 367.299 74.184 C 364.759 74.481, 364.436 75.128, 361.894 85 C 360.407 90.775, 359.113 95.275, 359.020 95 C 358.926 94.725, 357.625 90, 356.129 84.500 C 353.478 74.758, 353.334 74.500, 350.508 74.500 C 347.659 74.500, 347.563 74.681, 345.005 84.980 C 343.573 90.743, 342.144 95.018, 341.829 94.480 C 341.514 93.941, 340.211 89.112, 338.932 83.750 C 336.675 74.288, 336.523 74, 333.803 74 C 332.261 74, 331.002 74.338, 331.004 74.750 M 280.500 82.713 C 277.553 83.422, 276.723 84.550, 277.454 86.854 C 278.008 88.602, 278.493 88.763, 280.685 87.930 C 283.707 86.781, 286.584 87.472, 287.376 89.538 C 287.809 90.665, 287.053 91, 284.079 91 C 278.912 91, 275.667 93.695, 275.667 97.986 C 275.667 100.045, 276.364 101.793, 277.524 102.642 C 279.731 104.255, 284.362 104.412, 287.066 102.965 C 288.399 102.251, 289 102.251, 289 102.965 C 289 103.534, 289.900 104, 291 104 C 292.835 104, 293 103.333, 293 95.934 C 293 86.582, 292.215 84.619, 287.872 83.105 C 284.572 81.955, 283.819 81.915, 280.500 82.713 M 305.520 83.566 C 303.597 84.569, 302.415 84.744, 302.187 84.060 C 301.992 83.477, 300.971 83, 299.917 83 C 298.149 83, 298 83.819, 298 93.500 L 298 104 301 104 L 304 104 304 96.622 C 304 88.594, 305.100 86.593, 309.195 87.173 C 311.361 87.480, 311.518 87.997, 311.790 95.750 L 312.081 104 315.040 104 L 318 104 318 95.934 C 318 88.231, 317.003 84.370, 314.600 82.765 C 312.784 81.553, 308.688 81.914, 305.520 83.566 M 377 82.895 C 375.625 83.277, 374.545 84.132, 374.600 84.795 C 374.939 88.882, 374.936 88.879, 378.128 87.963 C 380.087 87.402, 381.955 87.441, 383.128 88.068 C 386.146 89.684, 385.290 91, 381.223 91 C 375.916 91, 373 93.300, 373 97.485 C 373 99.340, 373.707 101.564, 374.571 102.429 C 376.365 104.223, 383.057 104.543, 384.687 102.913 C 385.470 102.130, 385.962 102.130, 386.446 102.913 C 386.816 103.511, 387.766 104, 388.559 104 C 389.707 104, 390 102.168, 390 94.985 L 390 85.971 386.750 83.989 C 383.389 81.940, 381.283 81.703, 377 82.895 M 402.809 83.541 C 401.102 84.468, 399.893 84.636, 399.500 84.001 C 399.160 83.450, 398.009 83, 396.941 83 C 395.143 83, 395 83.773, 395 93.500 L 395 104 398 104 L 401 104 401 96.535 C 401 88.622, 401.991 87, 406.827 87 C 409.426 87, 410 88.824, 410 97.082 C 410 103.795, 410.074 104, 412.500 104 C 414.981 104, 415 103.933, 415 95 C 415 87.333, 414.704 85.704, 413 84 C 410.662 81.662, 406.607 81.479, 402.809 83.541 M 425.388 82.942 C 424.227 83.432, 422.270 85.108, 421.040 86.667 C 419.207 88.989, 418.888 90.391, 419.273 94.441 C 419.912 101.153, 423.422 104.327, 429.658 103.831 C 433.244 103.546, 434 103.787, 434 105.220 C 434 107.695, 429.603 110.311, 426.799 109.504 C 425.535 109.139, 423.768 108.639, 422.874 108.393 C 421.859 108.113, 421.053 108.690, 420.729 109.929 C 420.317 111.503, 420.936 112.154, 423.721 113.073 C 428.883 114.776, 435.045 113.649, 437.748 110.506 C 439.822 108.096, 440 106.908, 440 95.515 L 440 83.142 436.750 83.235 C 434.962 83.286, 432.150 83.040, 430.500 82.689 C 428.850 82.338, 426.550 82.452, 425.388 82.942 M 240 91.566 C 240 96.277, 240.438 100.950, 240.974 101.951 C 242.376 104.572, 246.307 105.229, 250.971 103.622 C 253.206 102.852, 255.268 102.624, 255.570 103.113 C 255.871 103.601, 256.991 104, 258.059 104 C 259.857 104, 260 103.227, 260 93.500 L 260 83 257 83 L 254 83 254 90.521 C 254 97.634, 253.860 98.107, 251.422 99.217 C 246.908 101.274, 245.542 99.389, 245.208 90.645 C 244.926 83.271, 244.829 83, 242.458 83 C 240.039 83, 240 83.135, 240 91.566 M 426.571 88.571 C 424.334 90.808, 424.574 96.304, 427.004 98.504 C 428.660 100.002, 429.442 100.120, 431.504 99.180 C 433.672 98.192, 434 97.398, 434 93.128 C 434 89.570, 433.564 88.047, 432.418 87.607 C 429.868 86.628, 428.247 86.896, 426.571 88.571 M 280.336 96.567 C 280.005 97.429, 280.242 98.642, 280.862 99.262 C 282.406 100.806, 287.377 98.995, 287.814 96.729 C 288.080 95.348, 287.420 95, 284.542 95 C 282.192 95, 280.728 95.545, 280.336 96.567 M 377.754 96.250 C 376.962 98.405, 378.080 100, 380.383 100 C 382.855 100, 385 98.281, 385 96.300 C 385 94.601, 378.377 94.556, 377.754 96.250" stroke="none" fill="#2a1d21" fill-rule="evenodd"/></svg>